<?xml version="1.0" standalone="no"?>
<!DOCTYPE svg PUBLIC "-//W3C//DTD SVG 20010904//EN"
 "http://www.w3.org/TR/2001/REC-SVG-20010904/DTD/svg10.dtd">
<svg version="1.0" xmlns="http://www.w3.org/2000/svg"
 width="190.000000pt" height="191.000000pt" viewBox="0 0 190.000000 191.000000"
 preserveAspectRatio="xMidYMid meet">
<metadata>
Created by potrace 1.16, written by Peter Selinger 2001-2019
</metadata>
<g transform="translate(0.000000,191.000000) scale(0.100000,-0.100000)"
fill="#000000" stroke="none">
<path d="M0 1680 l0 -230 230 0 230 0 0 230 0 230 -230 0 -230 0 0 -230z m390
0 l0 -170 -162 2 -163 3 -3 162 -2 163 162 3 c90 1 164 4 166 5 1 1 2 -75 2
-168z"/>
<path d="M130 1680 l0 -100 100 0 101 0 -3 98 -3 97 -97 3 -98 3 0 -101z"/>
<path d="M527 1903 c-4 -3 -7 -33 -7 -65 l0 -58 70 0 70 0 0 29 c0 26 4 30 33
33 31 3 36 12 28 61 -1 9 -185 10 -194 0z"/>
<path d="M918 1878 c-3 -29 -7 -33 -35 -36 -29 -3 -33 -7 -33 -33 0 -29 0 -29
-60 -29 -33 0 -61 -4 -61 -10 -1 -5 -2 -20 -3 -32 -1 -22 -5 -23 -103 -26
l-103 -3 0 -29 c0 -28 3 -30 35 -30 33 0 35 -2 35 -35 0 -33 2 -35 35 -35 33
0 35 2 35 35 l0 35 130 0 129 0 3 -132 3 -133 63 -3 62 -3 0 36 c0 33 2 35 35
35 32 0 35 2 35 30 0 27 3 30 33 30 31 0 33 -2 34 -37 2 -96 1 -93 33 -93 l30
0 0 65 c0 65 0 65 29 65 24 0 30 -5 35 -30 5 -25 10 -30 36 -30 l30 0 0 100 0
100 -65 0 -65 0 0 30 c0 27 3 30 30 30 30 0 35 8 31 53 -2 13 5 17 33 17 l36
0 0 65 0 65 -64 0 -65 0 -3 -32 c-2 -28 -7 -33 -28 -33 -30 0 -39 -10 -35 -41
2 -21 -2 -24 -31 -24 -31 0 -34 3 -34 30 0 27 3 30 29 30 20 0 32 6 36 19 9
31 -5 51 -36 51 -25 0 -29 -4 -29 -29 0 -30 -21 -45 -51 -39 -9 2 -15 -9 -17
-29 l-3 -33 -65 0 -64 0 0 30 c0 27 3 30 30 30 28 0 30 3 30 35 0 32 -2 35
-29 35 -26 0 -30 -4 -33 -32z m202 -133 c0 -32 2 -35 30 -35 17 0 30 -3 31 -7
4 -27 4 -100 1 -110 -2 -7 -17 -13 -33 -13 -26 0 -29 -3 -29 -35 0 -33 -2 -35
-35 -35 -32 0 -35 -2 -35 -30 0 -28 -3 -30 -35 -30 -32 0 -35 2 -35 30 0 28 3
30 35 30 33 0 35 2 35 35 0 33 2 35 35 35 l35 0 0 65 0 65 -35 0 c-33 0 -35 2
-35 35 0 33 2 35 35 35 33 0 35 -2 35 -35z"/>
<path d="M1447 1903 c-4 -3 -7 -107 -7 -230 l0 -223 230 0 230 0 0 230 0 230
-223 0 c-123 0 -227 -3 -230 -7z m393 -228 l0 -165 -162 2 -163 3 -3 163 -2
162 165 0 165 0 0 -165z"/>
<path d="M1580 1680 l0 -101 98 3 97 3 0 95 0 95 -97 3 -98 3 0 -101z"/>
<path d="M790 1414 l0 -165 -32 3 -33 3 1 63 1 62 -68 0 -69 0 0 65 0 65 -35
0 -35 0 0 -65 0 -65 -95 0 -95 0 0 -31 c0 -28 -2 -30 -32 -27 -28 2 -34 8 -36
31 -3 26 -5 27 -68 27 l-64 0 0 -30 0 -30 65 0 65 0 0 -35 0 -35 65 0 65 0 0
-30 0 -30 100 0 100 0 0 -99 0 -100 33 -3 c28 -3 32 -6 32 -33 l0 -30 -97 -3
-98 -3 0 36 c0 32 2 35 30 35 l30 0 0 65 0 65 -130 0 -130 0 0 35 c0 32 -2 35
-30 35 -28 0 -30 -3 -30 -35 0 -33 -2 -35 -35 -35 -33 0 -35 -2 -35 -35 0 -33
-2 -35 -35 -35 -33 0 -35 2 -35 35 0 32 -2 35 -30 35 -28 0 -30 -3 -30 -35 0
-32 2 -35 30 -35 l30 0 0 -65 0 -65 -30 0 -30 0 0 -65 0 -65 130 0 c97 0 130
-3 131 -12 0 -7 2 -21 4 -30 3 -14 -4 -18 -31 -18 -32 0 -34 -2 -34 -35 0 -33
-2 -35 -35 -35 -33 0 -35 -2 -35 -35 0 -33 -2 -35 -35 -35 -32 0 -35 -2 -35
-30 l0 -30 100 0 100 0 0 30 c0 27 -3 30 -30 30 -28 0 -30 3 -30 35 0 32 2 35
29 35 26 0 30 4 33 33 3 28 7 32 36 35 31 3 32 2 32 -32 l0 -36 65 0 65 0 0
-35 0 -35 -65 0 -65 0 0 -30 0 -30 95 0 95 0 0 65 0 65 35 0 c33 0 35 -2 35
-35 0 -33 2 -35 35 -35 32 0 35 -2 35 -31 0 -28 2 -30 33 -27 28 3 32 7 31 30
-1 25 2 28 32 28 31 0 34 -3 34 -29 0 -26 -4 -30 -32 -33 -29 -3 -33 -6 -33
-33 0 -30 0 -30 63 -33 l62 -3 0 66 0 65 -30 0 c-28 0 -30 3 -30 35 l0 35 129
0 130 0 3 -32 c3 -29 7 -33 36 -36 28 -3 32 -7 32 -32 0 -25 -4 -29 -32 -32
-29 -3 -33 -7 -36 -35 l-3 -33 100 0 101 0 0 -29 c0 -26 4 -30 32 -33 l32 -3
-3 -62 -2 -63 35 0 c35 0 36 -1 36 -36 0 -34 1 -35 32 -32 29 3 32 7 33 33 0
26 4 30 33 33 l32 3 0 -100 0 -101 35 0 35 0 0 65 0 65 65 0 65 0 0 -35 c0
-32 -3 -35 -29 -35 -28 0 -29 -2 -33 -55 -4 -71 -2 -75 33 -75 l29 0 0 66 0
65 33 -3 c29 -3 32 -6 33 -38 3 -93 2 -90 34 -90 l30 0 0 65 0 65 30 0 c28 0
30 3 30 35 0 32 -2 35 -30 35 -28 0 -30 3 -30 34 0 32 -3 35 -32 38 -28 2 -33
7 -33 28 0 21 -5 26 -32 28 l-33 3 0 65 0 64 33 0 c30 0 34 -3 34 -27 0 -16 1
-45 2 -65 l1 -38 60 0 60 0 0 35 c0 32 -2 35 -30 35 -27 0 -30 3 -30 30 0 27
3 30 30 30 28 0 30 3 30 35 l0 35 -62 0 -63 0 2 97 1 98 31 3 31 3 0 95 0 94
30 0 30 0 0 65 0 64 -62 3 c-63 3 -63 3 -63 33 0 30 0 30 -62 33 -62 3 -62 3
-65 35 l-3 32 -102 3 -103 3 0 29 0 29 103 3 102 3 0 33 c0 30 2 32 32 32 30
0 33 3 33 30 0 27 -3 30 -33 30 -29 0 -33 -3 -32 -27 0 -28 -1 -28 -67 -31
l-68 -3 0 31 c0 28 -3 30 -35 30 -32 0 -35 -2 -35 -30 l0 -30 -66 0 c-66 0
-66 0 -60 25 5 21 2 27 -20 35 -33 13 -44 6 -44 -31 0 -26 -3 -29 -30 -29 -17
0 -30 -6 -31 -12 -1 -7 -2 -22 -3 -33 -1 -15 -9 -21 -33 -23 -32 -3 -33 -2
-33 32 0 34 -2 36 -35 36 -33 0 -35 -2 -35 -35 0 -33 2 -35 35 -35 33 0 35 -2
35 -33 0 -24 8 -40 31 -60 17 -15 32 -27 33 -27 1 0 2 12 2 28 -1 23 3 27 32
30 28 3 32 7 32 33 l0 29 65 0 65 0 0 -29 c0 -26 -4 -30 -32 -33 -29 -3 -33
-6 -33 -33 0 -26 4 -30 32 -33 28 -3 32 -7 35 -35 2 -27 8 -33 31 -35 23 -3
27 -8 27 -33 l0 -29 -66 0 -66 0 6 30 6 30 -50 0 c-50 0 -50 0 -43 -27 33
-120 -30 -253 -149 -315 -44 -22 -68 -24 -243 -16 -41 1 -71 -3 -94 -15 -19
-9 -45 -17 -58 -17 -22 0 -23 3 -23 65 l0 65 -35 0 c-33 0 -35 2 -35 35 l0 35
48 0 49 0 -5 78 c-4 65 -1 87 17 127 11 26 21 49 21 51 0 2 -13 4 -30 4 -28 0
-30 3 -30 35 l0 35 65 0 65 0 0 30 c0 26 3 30 29 30 16 0 31 -6 34 -13 4 -11
18 -11 66 -3 l61 10 0 38 c0 36 -2 38 -30 38 -28 0 -30 -3 -30 -35 0 -33 -2
-35 -35 -35 l-35 0 0 165 0 165 -30 0 -30 0 0 -166z m-528 -326 l3 -33 98 -3
97 -3 0 -29 c0 -25 -4 -29 -32 -32 -29 -3 -33 -7 -36 -35 -3 -32 -2 -33 32
-33 33 0 36 -2 36 -30 0 -27 3 -30 30 -30 l30 0 0 -100 0 -100 -30 0 c-28 0
-30 3 -30 35 l0 35 -65 0 -65 0 0 65 0 65 -35 0 c-23 0 -35 5 -34 13 5 44 1
47 -66 47 l-65 0 0 35 0 35 65 0 65 0 0 30 c0 27 -3 30 -30 30 -28 0 -30 3
-30 35 0 32 2 35 29 35 26 0 30 -4 33 -32z m1388 10 c-4 -42 0 -48 30 -48 l30
0 0 -65 0 -65 29 0 c34 0 38 -9 37 -75 -1 -49 -2 -50 -33 -53 -29 -3 -32 -1
-35 30 l-3 33 -62 3 c-62 3 -63 3 -63 32 l0 30 -70 0 -70 0 0 -30 c0 -28 3
-30 35 -30 33 0 35 -2 35 -35 l0 -35 71 0 70 0 -3 -27 c-3 -24 1 -28 27 -33
29 -5 30 -6 33 -73 l3 -67 -66 0 -65 0 0 35 c0 33 2 35 36 35 34 0 35 1 32 33
l-3 32 -100 0 -100 0 -3 -32 c-3 -32 -2 -33 32 -33 35 0 36 -1 36 -36 0 -34
-1 -35 -32 -32 -29 3 -33 7 -36 36 -3 28 -7 32 -33 32 l-29 0 0 65 0 65 30 0
c28 0 30 3 30 35 l0 36 -62 -3 -63 -3 -1 -95 0 -95 -32 -3 c-27 -3 -31 -7 -34
-35 -3 -28 -7 -32 -33 -32 -27 0 -30 3 -30 30 0 27 4 30 33 33 l32 3 0 130 0
129 95 0 95 0 0 35 c0 33 2 35 35 35 32 0 35 2 35 30 0 28 -3 30 -35 30 -33 0
-35 2 -35 35 l0 35 106 0 c103 0 105 0 104 -22z m-72 -670 l3 -98 -101 0 -100
0 0 93 c0 52 3 97 7 101 4 4 48 5 98 4 l90 -3 3 -97z"/>
<path d="M1776 1358 c-9 -36 -8 -38 29 -38 33 0 35 -2 35 -35 l0 -35 -65 0
-65 0 0 -30 0 -30 65 0 65 0 0 -35 c0 -32 2 -35 30 -35 28 0 30 3 30 35 0 32
-2 35 -30 35 -27 0 -30 3 -30 30 0 27 3 30 30 30 l30 0 0 65 0 65 -59 0 c-52
0 -59 -2 -65 -22z"/>
<path d="M854 1176 c-63 -29 -110 -85 -130 -155 -15 -49 -15 -59 0 -122 15
-61 16 -73 2 -125 l-15 -56 42 7 c47 9 97 9 178 0 73 -9 126 7 177 51 62 53
86 105 86 184 0 178 -178 291 -340 216z m209 -57 c138 -91 105 -303 -54 -351
-32 -9 -51 -9 -92 1 -29 7 -71 13 -95 13 l-43 -1 6 32 c4 19 0 47 -9 69 -30
71 -14 152 42 212 37 39 77 55 143 56 46 0 64 -5 102 -31z"/>
<path d="M856 1054 c-44 -43 9 -141 101 -188 38 -19 84 -21 101 -4 35 35 -21
86 -59 52 -20 -18 -40 -11 -79 31 -19 21 -22 29 -13 44 8 13 7 25 -3 49 -15
36 -25 39 -48 16z"/>
<path d="M0 230 l0 -230 230 0 230 0 0 230 0 230 -230 0 -230 0 0 -230z m390
5 l0 -165 -165 0 -165 0 0 158 c0 87 3 162 7 165 3 4 78 7 165 7 l158 0 0
-165z"/>
<path d="M130 230 l0 -101 98 3 97 3 3 98 3 97 -101 0 -100 0 0 -100z"/>
<path d="M660 396 l0 -65 33 -3 c28 -3 32 -7 31 -30 -1 -25 2 -28 33 -28 l34
0 -3 63 c-3 62 -3 62 -35 65 -28 3 -32 7 -30 30 2 24 -2 27 -30 30 l-33 3 0
-65z"/>
<path d="M920 431 c0 -26 -4 -30 -32 -33 -29 -3 -33 -6 -33 -33 0 -27 4 -30
33 -33 31 -3 32 -2 32 32 0 33 2 36 30 36 l30 0 0 -65 0 -64 -62 -3 c-63 -3
-63 -3 -63 -33 0 -27 4 -30 33 -33 29 -3 32 -6 32 -38 0 -34 -1 -35 -32 -32
-30 3 -33 6 -32 36 l2 32 -64 0 c-44 0 -64 4 -65 13 -1 6 -2 21 -3 32 -1 15
-9 21 -33 23 l-33 3 0 -70 0 -71 65 0 65 0 0 -30 c0 -27 3 -30 29 -30 26 0 30
-4 33 -33 3 -32 3 -32 65 -35 l62 -3 3 33 c3 29 6 33 33 33 27 0 30 -4 33 -32
3 -30 6 -33 38 -33 32 0 34 2 34 35 0 33 2 35 33 35 l34 0 -1 63 -1 62 33 3
32 3 0 -100 0 -101 94 0 c100 0 111 5 95 47 -6 16 -17 23 -34 23 -21 0 -25 5
-25 29 0 26 -4 30 -32 33 l-33 3 0 65 0 65 -32 3 c-29 3 -33 7 -33 33 l0 29
-65 0 -65 0 0 -29 c0 -26 4 -30 32 -33 29 -3 33 -6 34 -35 1 -31 -1 -33 -32
-33 -32 0 -34 -2 -34 -35 0 -33 -2 -35 -35 -35 -33 0 -35 2 -35 35 0 33 -2 35
-35 35 -33 0 -35 2 -35 35 0 33 2 35 35 35 l35 0 0 65 0 65 -35 0 c-32 0 -35
2 -35 30 0 27 -3 30 -30 30 -27 0 -30 -3 -30 -29z"/>
</g>
</svg>
